<?xml version="1.0" encoding="UTF-8" standalone="no"?>
<!-- Created with Inkscape (http://www.inkscape.org/) -->

<svg
   width="19.655899mm"
   height="19.899754mm"
   viewBox="0 0 19.655899 19.899754"
   version="1.1"
   id="svg1480"
   inkscape:version="1.1.2 (b8e25be833, 2022-02-05)"
   sodipodi:docname="icon.svg"
   xmlns:inkscape="http://www.inkscape.org/namespaces/inkscape"
   xmlns:sodipodi="http://sodipodi.sourceforge.net/DTD/sodipodi-0.dtd"
   xmlns:xlink="http://www.w3.org/1999/xlink"
   xmlns="http://www.w3.org/2000/svg"
   xmlns:svg="http://www.w3.org/2000/svg">
  <sodipodi:namedview
     id="namedview1482"
     pagecolor="#ffffff"
     bordercolor="#666666"
     borderopacity="1.0"
     inkscape:pageshadow="2"
     inkscape:pageopacity="0.0"
     inkscape:pagecheckerboard="0"
     inkscape:document-units="mm"
     showgrid="false"
     inkscape:zoom="9.9452659"
     inkscape:cx="37.10308"
     inkscape:cy="37.605832"
     inkscape:window-width="1920"
     inkscape:window-height="986"
     inkscape:window-x="-11"
     inkscape:window-y="-11"
     inkscape:window-maximized="1"
     inkscape:current-layer="layer1" />
  <defs
     id="defs1477">
    <linearGradient
       id="linear-gradient-30"
       x1="105.88"
       y1="74.279999"
       x2="103.42"
       y2="71.82"
       xlink:href="#linear-gradient-4"
       gradientTransform="matrix(0.26458333,0,0,0.26458333,70.731085,112.71324)" />
    <linearGradient
       id="linear-gradient-4"
       x1="68.580002"
       y1="125.25"
       x2="72.459999"
       y2="125.25"
       gradientTransform="rotate(-45,70.520092,125.24962)"
       gradientUnits="userSpaceOnUse">
      <stop
         offset="0"
         stop-color="#be1e2d"
         id="stop15" />
      <stop
         offset="1"
         stop-color="#f05a28"
         id="stop17" />
    </linearGradient>
    <linearGradient
       id="linear-gradient-29"
       x1="36.5"
       y1="74.589996"
       x2="34.32"
       y2="72.120003"
       xlink:href="#linear-gradient-4"
       gradientTransform="matrix(0.26458333,0,0,0.26458333,70.731085,112.71324)" />
    <linearGradient
       id="linear-gradient-28"
       x1="68.029999"
       y1="113.69"
       x2="71.050003"
       y2="113.69"
       xlink:href="#linear-gradient"
       gradientTransform="matrix(0.26458333,0,0,0.26458333,70.731085,112.71324)" />
    <linearGradient
       id="linear-gradient"
       x1="49.25"
       y1="84.379997"
       x2="100.51"
       y2="151.42999"
       gradientUnits="userSpaceOnUse">
      <stop
         offset="0"
         stop-color="#c5a059"
         id="stop4" />
      <stop
         offset="1"
         stop-color="#6c5129"
         id="stop6" />
    </linearGradient>
    <linearGradient
       id="linear-gradient-27"
       x1="43.07"
       y1="103.34"
       x2="46.080002"
       y2="103.34"
       xlink:href="#linear-gradient"
       gradientTransform="matrix(0.26458333,0,0,0.26458333,70.731085,112.71324)" />
    <linearGradient
       id="linear-gradient-26"
       x1="93.169998"
       y1="103.34"
       x2="96.190002"
       y2="103.34"
       xlink:href="#linear-gradient"
       gradientTransform="matrix(0.26458333,0,0,0.26458333,70.731085,112.71324)" />
    <linearGradient
       id="linear-gradient-25"
       x1="34.830002"
       y1="40.5"
       x2="107.25"
       y2="60.57"
       xlink:href="#linear-gradient"
       gradientTransform="matrix(0.26458333,0,0,0.26458333,70.731085,112.71324)" />
    <linearGradient
       id="linear-gradient-24"
       x1="31.24"
       y1="51.560001"
       x2="105.02"
       y2="72.010002"
       xlink:href="#linear-gradient"
       gradientTransform="matrix(0.26458333,0,0,0.26458333,70.731085,112.71324)" />
    <linearGradient
       id="linear-gradient-23"
       x1="52.549999"
       y1="24.41"
       x2="77.400002"
       y2="24.41"
       gradientTransform="matrix(1.02,-0.3,0.05,1.51,3.52,42.71)"
       xlink:href="#linear-gradient" />
    <linearGradient
       id="linear-gradient-22"
       x1="70.239998"
       y1="60.77"
       x2="83.010002"
       y2="85.389999"
       xlink:href="#linear-gradient-4"
       gradientTransform="matrix(0.26458333,0,0,0.26458333,70.731085,112.71324)" />
    <linearGradient
       id="linear-gradient-21"
       x1="58.759998"
       y1="63.830002"
       x2="67.540001"
       y2="63.830002"
       xlink:href="#linear-gradient-4"
       gradientTransform="matrix(0.26458333,0,0,0.26458333,70.731085,112.71324)" />
    <linearGradient
       id="linear-gradient-20"
       x1="96.190002"
       y1="81.709999"
       x2="99.199997"
       y2="81.709999"
       xlink:href="#linear-gradient"
       gradientTransform="matrix(0.26458333,0,0,0.26458333,70.731085,112.71324)" />
    <linearGradient
       id="linear-gradient-19"
       x1="40.580002"
       y1="82.059998"
       x2="43.599998"
       y2="82.059998"
       xlink:href="#linear-gradient"
       gradientTransform="matrix(0.26458333,0,0,0.26458333,70.731085,112.71324)" />
    <linearGradient
       id="linear-gradient-18"
       x1="69.760002"
       y1="81.080002"
       x2="69.870003"
       y2="100.06"
       xlink:href="#linear-gradient-4"
       gradientTransform="matrix(0.26458333,0,0,0.26458333,70.731085,112.71324)" />
  </defs>
  <g
     inkscape:label="Layer 1"
     inkscape:groupmode="layer"
     id="layer1"
     transform="translate(-79.423969,-123.35831)">
    <polygon
       class="cls-7"
       points="68.41,83.92 62.95,85.34 62.84,84.87 "
       id="polygon107"
       style="fill:#231f20"
       transform="matrix(0.26458333,0,0,0.26458333,70.731085,112.71324)" />
    <path
       class="cls-25"
       d="m 96.059647,134.5202 c 0.06879,-0.0265 0.129646,-0.0635 0.193146,-0.0952 a 12.030604,12.030604 0 0 0 -2.278062,0.40481 c -0.751417,0.17463 -1.49225,0.38629 -2.225146,0.62706 -0.227542,0.0741 -0.457729,0.14552 -0.687917,0.20373 -0.386292,0.0979 -0.79375,0.21431 -0.875771,0.65881 a 4.4449999,4.4449999 0 0 0 -0.06879,0.52917 0.71966666,0.71966666 0 0 0 -0.206375,0.0952 l -0.129646,0.11113 h -0.468313 c -0.171979,0 -0.529166,-0.0212 -0.8255,-0.037 l -0.07937,-0.0582 a 0.57414583,0.57414583 0 0 0 -0.132291,-0.0688 4.3735624,4.3735624 0 0 0 -0.08202,-0.5715 c -0.08731,-0.4445 -0.486834,-0.56091 -0.875771,-0.65881 -0.230188,-0.0582 -0.460375,-0.12964 -0.687917,-0.20373 -0.732896,-0.24077 -1.473729,-0.45243 -2.225146,-0.62706 A 12.030604,12.030604 0 0 0 82.126696,134.425 c 0.0635,0.0318 0.124354,0.0688 0.193146,0.0952 a 20.185062,20.185062 0 0 1 4.312708,2.27012 l 0.145521,0.10584 a 0.30427083,0.30427083 0 0 1 -0.04233,0.52916 l -0.05292,0.0265 c -0.687917,0.34661 -1.36525,0.71967 -2.021417,1.12448 a 12.046479,12.046479 0 0 0 -1.899708,1.32292 c 0.06615,-0.0238 0.137583,-0.0397 0.203729,-0.0688 a 20.108333,20.108333 0 0 1 4.661958,-1.42875 c 0.219605,-0.0344 0.439209,-0.0635 0.658813,-0.09 0.264583,1.29116 0.677333,4.11427 0.838729,4.34181 0.153458,-0.31485 0.563563,-3.10621 0.841375,-4.34975 0.238125,0.0291 0.47625,0.0608 0.714375,0.0979 a 20.108333,20.108333 0 0 1 4.656667,1.41816 c 0.06615,0.0291 0.137583,0.045 0.203729,0.0688 A 11.400896,11.400896 0 0 0 93.7128,138.6133 q -1.021292,-0.62706 -2.079625,-1.16681 h -0.01852 a 0.30427083,0.30427083 0 0 1 -0.04233,-0.52917 l 0.174625,-0.127 a 20.185062,20.185062 0 0 1 4.312708,-2.27012 z"
       id="path115"
       style="fill:url(#linear-gradient-18);stroke:#231f20;stroke-width:0.129646px;stroke-miterlimit:10" />
    <circle
       class="cls-26"
       cx="81.867401"
       cy="134.42494"
       r="0.39952081"
       id="circle117"
       style="fill:url(#linear-gradient-19);stroke:#231f20;stroke-width:0.129646px;stroke-miterlimit:10" />
    <circle
       class="cls-27"
       cx="96.578232"
       cy="134.33234"
       r="0.39952081"
       id="circle119"
       style="fill:url(#linear-gradient-20);stroke:#231f20;stroke-width:0.129646px;stroke-miterlimit:10" />
    <path
       class="cls-28"
       d="m 86.894481,127.69395 a 3.540125,3.540125 0 0 0 -1.27,1.55839 c -0.219605,0.55827 -0.560917,1.20121 -0.566209,1.93675 0,0.3175 -0.370416,0.71967 -0.365125,0.90488 0,0.13494 0.246063,0.42862 0.381,0.42862 h 0.66675 a 0.34925,0.34925 0 0 1 0.34925,0.38365 5.0006249,5.0006249 0 0 1 -0.529166,1.89442 0.56356249,0.56356249 0 0 0 -0.07144,0.381 0.41010416,0.41010416 0 0 0 0.100542,0.20637 0.58472916,0.58472916 0 0 0 0.357187,0.13229 l 1.68275,-0.3175 a 0.38364583,0.38364583 0 0 1 0.383646,0.38365 v 1.40758 c 0,0 0.179917,0.59002 1.166813,0.59002 0.986895,0 1.0795,-0.6006 1.0795,-0.6006 v -7.64381"
       id="path121"
       style="fill:#ffffff;stroke:#231f20;stroke-width:0.129646px;stroke-miterlimit:10" />
    <path
       class="cls-29"
       d="m 86.561106,129.93497 a 0.70908332,0.70908332 0 0 1 0.529166,-0.49213 2.286,2.286 0 0 0 1.264709,1.09538"
       id="path123"
       style="fill:none;stroke:#231f20;stroke-width:0.129646px;stroke-linecap:round;stroke-miterlimit:10" />
    <ellipse
       class="cls-7"
       cx="86.680168"
       cy="130.5488"
       rx="0.10054167"
       ry="0.21166667"
       id="ellipse125"
       style="fill:#231f20;stroke-width:0.264583" />
    <path
       class="cls-30"
       d="m 86.465856,129.68097 a 0.34660416,0.34660416 0 0 0 0.164041,0.0265 c 0.251354,0 1.322917,-0.21696 1.412875,-0.14817 0.193146,0.14288 0.375709,0.30427 0.558271,0.46567 a 4.9556458,4.9556458 0 0 0 -0.672042,-0.83873 c -0.04498,-0.0503 -1.100666,0.20108 -1.571625,0.12435 a 0.07408333,0.07408333 0 0 0 -0.07673,0.10054 0.63235416,0.63235416 0 0 0 0.185209,0.26988 z"
       id="path127"
       style="fill:url(#linear-gradient-21);stroke:#231f20;stroke-width:0.129646px;stroke-miterlimit:10" />
    <path
       class="cls-31"
       d="m 89.042897,130.24982 v 4.16984 a 1.8811875,1.8811875 0 0 0 1.899709,1.89706 c 1.82827,0 2.44475,-1.08479 2.44475,-1.08479 -3.799417,-0.0291 0.992187,-3.34169 -0.889,-6.90827 l -4.09575,-0.45244 c 0,0 0.640291,0.55827 0.640291,2.3786 z"
       id="path129"
       style="fill:url(#linear-gradient-22);stroke:#231f20;stroke-width:0.129646px;stroke-miterlimit:10" />
    <path
       class="cls-29"
       d="m 86.505543,130.27099 c 0.224896,0.19315 1.296458,0.43392 1.296458,0.43392 l -1.190625,0.0556"
       id="path131"
       style="fill:none;stroke:#231f20;stroke-width:0.129646px;stroke-linecap:round;stroke-miterlimit:10" />
    <polygon
       class="cls-32"
       points="59.81,56.3 83.27,60.08 83.76,63.59 58.09,59.46 "
       id="polygon133"
       style="fill:url(#linear-gradient-23);stroke:#231f20;stroke-width:0.61px;stroke-miterlimit:10"
       transform="matrix(0.26458333,0,0,0.26458333,70.731085,112.71324)" />
    <path
       class="cls-33"
       d="m 85.793814,125.67782 a 2.38125,2.38125 0 0 0 -0.775229,-0.52916 3.7967708,3.7967708 0 0 0 -3.415771,0.33073 c -1.137708,0.79375 -1.299104,2.27277 -1.309687,3.5507 0.0053,0.19844 -0.03704,2.46857 -0.03704,2.46857 h -0.354542 c 0,0 0.02117,-1.05834 0.02381,-1.13507 0.02646,-0.67733 0,-1.35995 0.04233,-2.03993 a 6.0430833,6.0430833 0 0 1 0.529167,-2.35744 3.937,3.937 0 0 1 1.407583,-1.5875 6.2256458,6.2256458 0 0 1 2.061104,-0.79375 5.6647291,5.6647291 0 0 1 3.780896,0.38894 c 0.703792,0.35189 1.227667,0.97895 1.680104,1.60337 v 0.0185 a 6.9955832,6.9955832 0 0 1 1.322917,2.66965 l -4.177771,-0.64294 c 0,0 -0.119063,-0.6985 -0.182563,-0.93662 A 2.2780625,2.2780625 0 0 0 85.79381,125.6778 Z"
       id="path135"
       style="fill:url(#linear-gradient-24);stroke:#231f20;stroke-width:0.129646px;stroke-miterlimit:10" />
    <path
       class="cls-34"
       d="m 89.175189,126.88961 a 2.1351875,2.1351875 0 0 1 0.410104,-0.65616 4.4053124,4.4053124 0 0 1 1.762125,-1.46315 c 1.423458,-0.66146 3.106208,-0.52916 4.497917,0.1614 a 4.9768124,4.9768124 0 0 1 1.672166,1.21973 c 0.92075,1.11918 1.026584,2.53471 1.058334,3.93964 0,0.0979 0.02646,1.4314 0.02646,1.4314 H 98.30596 c 0,0 -0.0344,-0.75142 -0.03175,-1.12713 a 9.8610207,9.8610207 0 0 0 -0.07673,-1.47902 c -0.116416,-0.85725 -0.410104,-1.81239 -1.124479,-2.33627 a 3.254375,3.254375 0 0 0 -3.058583,-0.31221 2.1166666,2.1166666 0 0 0 -0.685271,0.48155 2.1828125,2.1828125 0 0 0 -0.529166,0.96308 8.1729791,8.1729791 0 0 0 -0.111125,0.84402 l -3.947584,-0.59002"
       id="path137"
       style="fill:url(#linear-gradient-25);stroke:#231f20;stroke-width:0.127px;stroke-miterlimit:10" />
    <path
       class="cls-35"
       d="m 86.259481,133.46186 a 8.1862082,8.1862082 0 0 0 1.113895,-0.3757"
       id="path139"
       style="fill:none;stroke:#231f20;stroke-width:0.108479px;stroke-linecap:round;stroke-miterlimit:10" />
    <path
       class="cls-7"
       d="m 87.524189,132.50407 a 3.3522708,3.3522708 0 0 1 -1.447271,1.79388 5.1646666,5.1646666 0 0 0 0.280458,-1.37319 5.5562499,5.5562499 0 0 0 1.166813,-0.42069 m 0.171979,-0.21696 a 5.2069999,5.2069999 0 0 1 -1.447271,0.54769 4.4185416,4.4185416 0 0 1 -0.410104,1.73038 c 1.616604,-0.88371 1.820333,-2.14048 1.852083,-2.27807 z"
       id="path141"
       style="fill:#231f20;stroke-width:0.264583" />
    <path
       class="cls-7"
       d="m 86.500251,130.89805 a 0.28839583,0.28839583 0 0 0 -0.201083,0.26459 0.41804166,0.41804166 0 0 0 0.124354,0.30956 1.3784791,1.3784791 0 0 0 0.616479,0.3466 1.6536458,1.6536458 0 0 1 0.642938,0.39423 1.0980208,1.0980208 0 0 1 0.328083,0.66675 1.2488333,1.2488333 0 0 0 -0.386291,-0.60589 1.730375,1.730375 0 0 0 -0.621771,-0.35455 1.3917083,1.3917083 0 0 1 -0.645584,-0.39158 0.48683333,0.48683333 0 0 1 -0.111125,-0.37306 0.30427083,0.30427083 0 0 1 0.254,-0.25665 z"
       id="path143"
       style="fill:#231f20;stroke-width:0.264583" />
    <circle
       class="cls-36"
       cx="95.781837"
       cy="140.05528"
       r="0.39952081"
       id="circle149"
       style="fill:url(#linear-gradient-26);stroke:#231f20;stroke-width:0.129646px;stroke-miterlimit:10" />
    <circle
       class="cls-37"
       cx="82.526207"
       cy="140.05528"
       r="0.39952081"
       id="circle151"
       style="fill:url(#linear-gradient-27);stroke:#231f20;stroke-width:0.129646px;stroke-miterlimit:10" />
    <circle
       class="cls-38"
       cx="89.130211"
       cy="142.79372"
       r="0.39952081"
       id="circle153"
       style="fill:url(#linear-gradient-28);stroke:#231f20;stroke-width:0.129646px;stroke-miterlimit:10" />
    <circle
       class="cls-39"
       cx="80.055"
       cy="132.07016"
       r="0.56620836"
       id="circle159"
       style="fill:url(#linear-gradient-29);stroke:#231f20;stroke-width:0.129646px;stroke-miterlimit:10" />
    <circle
       class="cls-40"
       cx="98.448837"
       cy="132.07016"
       r="0.56620836"
       id="circle161"
       style="fill:url(#linear-gradient-30);stroke:#231f20;stroke-width:0.129646px;stroke-miterlimit:10" />
  </g>
</svg>
